<?xml version="1.0" standalone="no"?>
<!DOCTYPE svg PUBLIC "-//W3C//DTD SVG 20010904//EN"
 "http://www.w3.org/TR/2001/REC-SVG-20010904/DTD/svg10.dtd">
<svg version="1.0" xmlns="http://www.w3.org/2000/svg"
 width="1371.000000pt" height="1371.000000pt" viewBox="0 0 1371.000000 1371.000000"
 preserveAspectRatio="xMidYMid meet">
<metadata>
Created by potrace 1.14, written by Peter Selinger 2001-2017
</metadata>
<g transform="translate(0.000000,1371.000000) scale(0.100000,-0.100000)"
fill="#000000" stroke="none">
<path d="M7505 13130 c-11 -4 -50 -10 -86 -12 -36 -3 -71 -8 -77 -12 -7 -4
-12 -3 -12 3 0 5 -10 7 -22 4 -13 -3 -33 -6 -45 -7 -13 0 -23 -5 -23 -9 0 -5
-5 -5 -12 -1 -16 10 -68 11 -68 1 0 -5 -6 -7 -12 -4 -7 2 -21 0 -30 -4 -10 -6
-19 -5 -23 1 -4 6 -10 8 -15 5 -4 -3 -40 -7 -78 -9 -39 -2 -75 -7 -81 -11 -6
-3 -11 -2 -11 3 0 6 -14 7 -37 1 -21 -4 -39 -6 -42 -4 -2 3 -10 0 -18 -6 -8
-7 -13 -7 -13 -2 0 6 -12 8 -27 6 -16 -2 -34 -4 -40 -4 -18 1 -22 1 -150 -2
-62 -1 -113 -4 -113 -7 0 -3 -17 -5 -37 -5 -21 0 -48 -3 -60 -7 -14 -5 -23 -3
-23 3 0 6 -7 6 -19 -1 -11 -5 -53 -10 -93 -11 -97 0 -138 -3 -138 -9 0 -3 -11
-5 -25 -5 -14 0 -25 3 -25 7 0 8 -21 5 -38 -5 -7 -5 -38 -7 -70 -6 -32 1 -64
-1 -71 -5 -7 -5 -15 -5 -18 -2 -3 3 -12 1 -19 -5 -7 -5 -15 -6 -17 -2 -7 12
-87 3 -87 -9 0 -5 -5 -6 -12 -2 -13 8 -76 9 -98 1 -34 -12 -59 -14 -71 -6 -7
4 -22 3 -32 -3 -15 -8 -18 -7 -12 3 6 8 4 10 -6 4 -7 -5 -45 -10 -84 -12 -104
-4 -185 -12 -196 -18 -5 -4 -9 -1 -9 5 0 7 -7 9 -17 6 -15 -6 -180 -19 -255
-21 -16 0 -28 -4 -28 -9 0 -5 -6 -4 -12 2 -17 13 -79 6 -90 -11 -4 -6 -8 -7
-8 -2 0 13 -151 7 -167 -6 -7 -7 -14 -6 -18 1 -3 6 -10 8 -14 5 -5 -2 -59 -7
-122 -11 -143 -8 -152 -9 -167 -18 -7 -4 -12 -3 -12 1 0 9 -40 10 -56 1 -5 -3
-48 -5 -96 -4 -49 1 -88 -2 -88 -6 0 -4 -23 -6 -50 -5 -28 1 -52 -2 -54 -8 -3
-5 -5 -4 -5 3 -1 7 -6 10 -12 6 -6 -3 -54 -8 -106 -10 -53 -2 -102 -9 -109
-15 -8 -6 -14 -7 -14 -2 0 10 -64 8 -82 -3 -6 -4 -9 -3 -5 2 3 5 -11 9 -30 8
-19 -1 -39 -7 -44 -15 -5 -8 -9 -9 -9 -4 0 14 -197 4 -221 -11 -5 -3 -9 -1 -9
4 0 16 -91 -6 -157 -38 -196 -97 -274 -320 -178 -510 25 -49 106 -140 124
-140 6 0 11 -3 11 -8 0 -16 99 -51 158 -55 12 -1 22 -5 22 -8 0 -4 59 -7 130
-8 72 0 130 3 130 7 0 4 30 6 67 5 38 0 72 1 76 4 4 3 38 6 75 8 37 2 82 5
100 7 17 2 32 0 32 -5 0 -4 6 -5 12 -1 7 5 31 9 53 11 22 2 46 6 53 8 6 2 12
0 12 -6 0 -6 5 -7 12 -3 7 4 34 7 61 6 27 0 58 3 71 8 13 4 29 4 39 -1 9 -6
17 -6 17 -2 0 4 37 9 83 11 45 1 105 5 132 8 28 3 60 7 73 9 12 1 22 -2 22 -6
0 -5 12 -4 26 1 16 7 23 7 19 0 -4 -6 2 -7 17 -2 13 5 55 9 93 11 39 2 75 7
82 12 7 7 13 5 16 -3 3 -7 6 -8 6 -2 1 6 19 9 44 7 23 -2 72 1 109 5 46 6 69
5 72 -2 3 -7 5 -6 5 2 1 8 9 10 26 6 14 -3 33 -3 42 1 24 10 83 12 83 3 0 -4
11 -3 24 2 13 5 27 6 30 3 3 -4 6 -1 6 6 0 9 5 9 20 1 11 -6 20 -7 20 -2 0 5
20 6 45 2 26 -4 46 -3 48 3 3 10 124 13 134 3 3 -3 12 -1 20 5 7 7 47 11 88
11 41 0 77 3 80 7 2 5 17 6 32 4 33 -5 67 -4 108 3 37 6 95 5 107 -2 4 -3 8
-1 8 3 0 10 14 11 143 13 48 1 87 5 87 8 0 4 34 6 75 6 41 -1 75 1 75 5 0 3
11 6 25 6 14 0 25 -3 25 -7 0 -4 10 -4 23 1 12 5 32 5 44 0 15 -5 27 -4 34 4
7 8 34 11 76 9 40 -2 69 1 78 8 12 10 15 10 15 -1 0 -9 3 -10 8 -4 9 13 32 17
32 6 0 -6 12 -6 30 -1 18 5 30 5 30 -1 0 -8 -81 -120 -106 -146 -7 -7 -22 -28
-34 -48 -12 -19 -26 -35 -31 -35 -5 0 -9 -5 -9 -10 0 -6 -22 -40 -50 -75 -27
-35 -50 -69 -50 -74 0 -5 -7 -11 -15 -15 -8 -3 -15 -12 -15 -21 0 -8 -7 -15
-15 -15 -8 0 -14 -4 -13 -8 4 -10 -143 -202 -154 -202 -5 0 -8 -7 -8 -15 0 -8
-8 -22 -18 -32 -10 -10 -39 -45 -63 -78 -24 -33 -50 -66 -57 -74 -7 -7 -38
-48 -69 -90 -30 -42 -62 -82 -71 -88 -9 -7 -12 -13 -6 -13 5 0 5 -3 -1 -8 -6
-4 -37 -43 -69 -87 -33 -44 -64 -83 -70 -87 -7 -5 -7 -8 -1 -8 7 0 6 -3 0 -8
-10 -7 -48 -53 -81 -97 -8 -11 -39 -52 -69 -92 -30 -39 -55 -76 -55 -81 0 -6
-4 -12 -9 -14 -5 -1 -73 -88 -152 -193 -78 -104 -145 -192 -148 -195 -3 -3
-10 -12 -16 -21 -25 -41 -238 -319 -244 -319 -4 0 -8 6 -9 13 -6 42 -11 75
-16 95 -9 34 -14 56 -20 93 -3 19 -8 45 -11 59 -9 38 -16 82 -20 115 -2 17 -4
30 -5 30 -1 0 -3 11 -5 25 -2 14 -7 39 -10 55 -4 17 -8 46 -10 65 -2 19 -4 35
-5 35 -2 0 -9 30 -14 55 -1 8 -12 35 -24 61 -22 46 -123 159 -142 159 -7 0
-18 7 -27 15 -8 8 -19 13 -24 10 -5 -4 -9 -2 -9 3 0 24 -232 46 -254 25 -4 -5
-11 -8 -14 -8 -28 -1 -127 -61 -168 -101 -44 -43 -91 -121 -99 -164 -2 -8 -4
-15 -5 -15 -3 0 -11 -58 -12 -85 -1 -26 6 -73 18 -125 4 -16 8 -46 9 -65 1
-19 3 -35 4 -35 2 0 4 -11 7 -25 11 -67 16 -94 29 -160 6 -26 12 -62 20 -107
5 -34 13 -68 15 -68 1 0 3 -13 5 -30 2 -16 6 -41 10 -55 4 -14 8 -36 10 -50 1
-14 3 -25 4 -25 3 0 7 -18 21 -95 6 -36 13 -76 16 -90 11 -62 14 -77 19 -105
3 -16 7 -39 9 -50 1 -11 6 -29 9 -40 3 -11 9 -33 12 -50 7 -41 13 -75 22 -110
6 -30 10 -49 17 -95 2 -14 5 -26 6 -27 1 -2 4 -12 5 -23 1 -11 4 -22 5 -25 1
-3 4 -14 5 -25 1 -11 3 -21 5 -22 2 -3 5 -18 14 -68 13 -68 16 -85 21 -110 3
-14 7 -38 9 -55 2 -16 4 -30 5 -30 3 0 10 -31 16 -65 2 -14 6 -38 9 -55 7 -36
13 -69 20 -113 3 -17 8 -44 11 -60 11 -51 15 -77 19 -107 2 -16 5 -30 6 -30 2
0 9 -31 14 -70 3 -16 7 -46 11 -65 3 -19 8 -48 10 -65 5 -33 12 -70 15 -70 1
0 3 -16 5 -35 1 -19 3 -35 4 -35 3 0 6 -13 16 -65 10 -50 13 -65 15 -65 1 0 3
-11 5 -25 1 -14 5 -36 9 -50 5 -23 16 -83 21 -125 1 -11 3 -20 5 -20 1 0 3
-11 4 -25 2 -14 6 -34 9 -45 3 -11 9 -33 12 -50 2 -16 7 -41 11 -55 3 -14 7
-34 8 -45 2 -11 5 -20 6 -20 1 0 3 -13 5 -30 1 -16 3 -30 5 -30 1 0 3 -11 5
-25 7 -47 12 -75 14 -75 1 0 4 -16 6 -35 3 -19 7 -46 10 -60 3 -14 8 -40 11
-59 3 -18 8 -42 10 -52 2 -11 6 -29 9 -41 2 -13 8 -36 11 -53 4 -16 8 -39 10
-50 1 -11 3 -20 4 -20 2 0 6 -18 15 -70 3 -22 9 -51 11 -65 3 -14 6 -36 8 -50
2 -14 4 -25 6 -25 1 0 4 -11 5 -25 6 -41 14 -85 15 -85 3 0 9 -48 11 -80 1
-16 5 -34 9 -40 4 -5 8 -17 8 -25 1 -8 3 -26 6 -40 3 -14 8 -41 12 -60 10 -55
12 -65 14 -65 1 0 3 -11 5 -25 1 -14 6 -38 10 -55 4 -16 8 -41 10 -55 1 -14 3
-25 5 -25 1 0 3 -11 5 -25 9 -65 18 -108 31 -145 23 -64 24 -74 5 -80 -9 -3
-28 -19 -42 -35 -13 -17 -59 -66 -101 -110 -43 -43 -78 -81 -78 -84 0 -2 -33
-38 -72 -79 -40 -41 -133 -137 -207 -214 -73 -76 -228 -236 -345 -355 -116
-119 -260 -269 -321 -333 -60 -63 -147 -153 -192 -199 -46 -46 -83 -87 -83
-90 0 -3 -57 -62 -126 -132 -115 -116 -147 -159 -160 -218 -17 -77 -20 -126
-10 -186 8 -47 38 -130 48 -130 4 0 8 -5 8 -11 0 -22 101 -115 152 -141 75
-37 146 -58 152 -44 3 7 5 7 5 0 1 -7 21 -8 63 -3 35 4 65 7 68 6 3 -1 28 10
55 23 28 13 53 24 56 24 3 1 13 8 22 16 9 8 37 31 63 50 26 19 61 49 77 65 64
65 256 266 320 336 38 41 102 108 143 150 41 42 74 79 74 81 0 3 37 43 81 89
45 46 157 161 248 255 91 94 199 206 240 248 40 43 71 70 67 61 -3 -9 -3 -22
1 -28 8 -13 8 -12 17 -73 4 -22 11 -55 16 -73 5 -17 9 -34 9 -36 1 -3 1 -6 2
-7 1 -2 3 -14 5 -28 8 -50 12 -75 14 -75 1 0 3 -11 6 -25 2 -14 6 -36 8 -50 3
-14 7 -41 11 -60 7 -45 13 -75 15 -75 1 0 4 -15 14 -80 2 -11 4 -20 6 -20 1 0
3 -9 5 -20 2 -11 6 -36 10 -55 4 -19 8 -46 10 -60 2 -14 4 -26 5 -27 1 -2 4
-12 5 -23 1 -11 4 -21 5 -22 1 -2 4 -12 6 -23 6 -44 16 -101 20 -125 3 -14 6
-36 8 -50 2 -14 5 -25 6 -25 1 0 3 -15 5 -34 2 -19 7 -46 10 -60 7 -27 16 -73
20 -106 1 -11 3 -20 5 -20 2 0 10 -41 13 -75 2 -14 7 -36 12 -50 4 -14 9 -36
11 -50 1 -14 3 -25 4 -25 1 0 3 -11 5 -25 4 -24 11 -67 21 -120 2 -14 6 -38 8
-55 3 -16 7 -41 10 -55 3 -14 8 -36 11 -50 3 -14 8 -36 11 -50 6 -31 11 -55
19 -97 3 -18 8 -48 11 -65 3 -18 6 -41 6 -50 -1 -10 3 -20 8 -23 5 -3 7 -12 4
-20 -3 -8 -2 -20 2 -27 5 -7 9 -22 10 -33 1 -11 5 -33 8 -50 4 -16 9 -43 11
-60 3 -16 7 -41 10 -55 4 -14 8 -34 10 -45 3 -11 8 -31 11 -45 3 -14 6 -34 5
-45 0 -10 5 -25 10 -32 6 -6 8 -17 4 -23 -3 -5 -3 -16 2 -22 4 -7 8 -24 9 -38
1 -14 5 -38 9 -55 4 -16 8 -39 10 -50 1 -11 3 -20 5 -20 1 0 3 -9 5 -20 1 -11
6 -38 10 -60 3 -22 8 -49 9 -60 2 -11 4 -20 6 -20 2 0 8 -36 15 -85 2 -19 9
-57 15 -85 7 -27 13 -59 15 -70 1 -11 3 -20 5 -20 1 0 4 -13 5 -30 2 -16 6
-46 10 -65 4 -19 9 -44 10 -55 1 -11 3 -20 4 -20 1 0 4 -13 7 -30 4 -32 11
-67 14 -75 1 -3 2 -9 1 -14 -1 -5 1 -16 5 -25 4 -9 8 -23 9 -31 11 -73 22
-133 25 -137 2 -2 4 -12 5 -23 1 -11 4 -21 5 -22 1 -2 3 -14 5 -28 2 -14 6
-36 10 -50 4 -14 6 -36 6 -49 -1 -13 3 -29 7 -35 5 -6 8 -18 7 -26 -1 -8 3
-28 7 -45 5 -16 11 -43 13 -60 5 -36 12 -74 18 -95 2 -8 8 -28 12 -45 11 -43
59 -123 100 -170 19 -22 35 -43 35 -47 0 -5 3 -7 8 -6 4 1 25 -9 47 -23 41
-27 133 -61 169 -63 12 -1 24 3 28 9 5 6 8 6 8 0 0 -16 120 -9 148 9 7 4 16 6
19 3 14 -15 193 114 193 139 0 8 5 14 10 14 6 0 15 10 20 23 6 12 14 29 20 37
53 80 67 243 28 336 -12 29 -15 45 -22 99 -2 17 -5 30 -6 30 -1 0 -4 11 -6 25
-4 35 -12 75 -15 75 -2 0 -5 19 -13 70 -3 17 -7 40 -9 51 -5 19 -10 49 -22
119 -2 11 -7 31 -10 45 -3 14 -8 39 -10 55 -3 17 -7 41 -10 55 -3 14 -8 39
-11 55 -3 17 -7 35 -8 40 -5 17 -16 79 -19 105 -2 14 -7 32 -11 41 -4 9 -6 20
-4 25 1 5 -4 32 -11 60 -7 28 -14 67 -16 85 -2 19 -4 34 -5 34 -1 0 -4 14 -6
30 -8 47 -12 70 -14 70 -1 0 -3 11 -5 25 -1 14 -6 39 -10 55 -3 17 -8 41 -10
55 -2 14 -6 36 -10 50 -9 36 -16 72 -20 100 -2 14 -5 25 -6 25 -1 0 -3 9 -5
20 -9 59 -13 83 -19 115 -4 19 -8 44 -10 55 -1 11 -3 20 -5 20 -2 0 -4 14 -14
80 -4 22 -9 47 -12 56 -2 9 -7 33 -9 54 -3 20 -7 41 -10 45 -5 8 -17 89 -19
123 0 9 -3 17 -6 17 -3 0 -6 10 -7 23 -1 12 -4 36 -8 52 -4 17 -8 41 -10 55
-2 14 -4 26 -6 28 -1 1 -3 11 -4 22 -1 11 -4 21 -5 23 -1 1 -4 13 -6 27 -4 30
-10 65 -17 100 -6 29 -16 86 -22 115 -2 11 -4 20 -5 20 -2 0 -10 43 -14 75 -2
14 -5 25 -6 25 -1 0 -3 14 -6 30 -5 38 -12 70 -14 70 -1 0 -3 11 -5 25 -2 14
-7 41 -10 60 -4 19 -8 44 -10 55 -4 26 -16 87 -19 100 -4 14 -25 125 -31 165
-5 28 -14 75 -20 105 -4 19 -10 49 -19 105 -3 14 -5 25 -6 25 -1 0 -4 11 -6
25 -2 14 -7 39 -10 55 -2 17 -6 39 -8 50 -2 11 -6 27 -9 35 -3 8 -6 22 -6 30
-1 19 -9 65 -11 65 -1 0 -3 9 -4 20 -2 11 -6 36 -11 55 -4 19 -10 46 -12 60
-2 14 -6 36 -9 50 -3 14 -6 35 -6 48 0 12 -4 22 -9 22 -5 0 -9 10 -8 23 0 12
-3 38 -6 57 -4 19 -8 44 -9 55 -2 11 -7 28 -11 37 -4 9 -4 21 -1 27 4 5 2 12
-3 16 -5 3 -10 13 -9 23 0 9 -3 28 -6 42 -3 14 -9 41 -12 60 -6 40 -10 63 -20
105 -3 17 -8 41 -9 55 -2 14 -4 26 -5 28 -1 1 -4 11 -5 22 -1 11 -4 21 -5 23
-1 1 -3 16 -5 32 -1 17 -7 41 -12 55 -5 14 -8 31 -7 38 1 6 2 17 3 23 0 5 5 7
11 4 9 -6 111 93 807 783 134 133 246 242 249 242 2 0 60 55 129 123 69 67
144 138 165 157 22 19 40 37 40 41 0 9 87 99 95 99 3 0 199 192 435 428 626
622 900 892 905 892 5 0 177 170 685 673 143 141 262 257 265 257 3 0 81 78
175 173 93 94 179 181 190 192 118 115 150 148 150 156 0 5 4 9 8 9 4 0 24 27
43 60 18 33 37 60 41 60 4 0 5 7 2 15 -4 8 -1 15 7 15 7 0 9 3 6 6 -3 4 -2 15
4 26 12 23 16 37 33 143 8 44 11 82 7 85 -3 3 -7 17 -8 32 -4 51 -48 158 -82
201 -56 69 -197 168 -215 150 -3 -3 -6 -1 -6 5 0 7 -11 12 -25 12 -14 0 -25 3
-25 8 0 4 -37 8 -83 10 -45 2 -99 4 -119 5 -21 1 -38 -2 -38 -7 0 -4 -6 -3
-14 3 -10 8 -16 8 -24 -2 -6 -7 -27 -12 -46 -12 -20 1 -36 -2 -36 -6 0 -4 -13
-6 -30 -5 -16 1 -30 -1 -30 -4 0 -3 -8 -6 -17 -6 -41 -2 -167 -35 -174 -45 -5
-8 -8 -8 -11 2 -3 9 -7 9 -18 -3 -8 -8 -24 -12 -37 -10 -13 2 -23 0 -23 -4 0
-5 -17 -10 -38 -12 -62 -4 -72 -6 -72 -15 0 -5 -7 -7 -15 -3 -8 3 -15 1 -15
-3 0 -5 -9 -7 -20 -4 -11 3 -20 1 -20 -4 0 -5 -10 -9 -21 -8 -12 1 -51 -6 -86
-16 -35 -10 -76 -20 -91 -23 -15 -3 -58 -12 -97 -20 -173 -37 -222 -47 -250
-50 -11 -1 -31 -8 -44 -15 -14 -8 -21 -9 -17 -2 5 8 0 8 -19 1 -15 -6 -30 -8
-35 -5 -5 3 -14 0 -22 -7 -7 -7 -24 -13 -38 -14 -32 -1 -90 -10 -110 -17 -8
-3 -31 -8 -50 -11 -19 -2 -46 -7 -60 -10 -14 -3 -72 -15 -130 -26 -58 -11
-123 -25 -145 -30 -22 -5 -56 -12 -75 -16 -19 -3 -53 -9 -75 -14 -68 -15 -179
-38 -210 -44 -16 -3 -50 -10 -75 -15 -25 -5 -48 -7 -52 -5 -4 2 -10 -1 -15 -8
-4 -7 -26 -14 -48 -15 -33 -2 -210 -38 -210 -43 0 -1 -13 -3 -30 -5 -52 -7
-130 -27 -142 -38 -9 -6 -13 -6 -13 2 0 9 -5 9 -20 1 -11 -6 -38 -11 -60 -13
-22 -1 -40 -5 -40 -9 0 -5 -13 -8 -29 -8 -16 0 -32 -6 -34 -12 -3 -8 -6 -8 -6
-2 -1 8 -16 7 -52 -2 -29 -8 -55 -11 -59 -9 -4 3 -13 -1 -19 -9 -7 -8 -21 -12
-31 -9 -11 3 -27 0 -35 -7 -11 -9 -15 -9 -15 -1 0 8 -5 9 -18 2 -16 -8 -62
-18 -130 -26 -13 -2 -29 -9 -37 -15 -11 -9 -15 -9 -15 -1 0 8 -5 9 -18 2 -10
-5 -36 -12 -58 -15 -63 -9 -119 -22 -134 -31 -9 -6 -11 -4 -5 4 6 10 3 11 -13
2 -11 -6 -29 -11 -38 -11 -15 0 -13 5 9 28 15 15 27 31 27 36 0 4 10 17 23 30
20 21 78 98 102 135 6 9 16 20 23 24 6 4 12 14 12 20 0 7 8 20 18 29 23 23 42
46 42 53 0 4 6 12 13 19 6 7 21 25 32 40 11 16 25 33 30 40 6 6 22 27 35 46
14 19 32 42 40 51 8 9 22 26 30 39 8 12 23 32 32 44 43 51 54 65 68 87 8 12
23 29 33 38 9 8 17 19 17 23 0 5 8 16 18 26 9 10 24 29 32 41 8 13 22 31 30
41 8 10 22 28 30 40 8 12 23 31 33 43 10 12 27 36 38 54 11 18 25 33 30 33 5
0 9 6 9 13 0 6 16 29 35 51 19 21 35 42 35 47 0 4 11 21 25 36 30 34 33 38 70
88 17 22 32 42 35 45 12 12 60 79 60 84 0 3 8 15 18 25 31 35 42 50 42 58 0 5
8 16 18 24 9 9 24 26 32 39 8 12 21 28 28 36 6 7 12 16 12 21 0 5 8 16 18 24
9 9 24 26 32 39 13 20 35 49 65 88 5 7 18 22 28 33 9 10 17 22 17 27 0 4 8 15
18 24 22 21 34 36 58 73 19 30 32 46 69 90 11 13 38 48 59 79 22 31 43 56 48
56 4 0 8 5 8 11 0 11 60 92 73 97 4 2 7 8 7 13 0 6 11 22 25 37 14 15 25 33
25 40 0 7 6 15 14 18 8 3 22 26 32 52 9 25 26 56 37 67 21 22 82 145 78 159
-1 4 2 13 7 20 8 12 8 123 -1 167 -9 45 -46 107 -91 154 -23 25 -47 45 -53 45
-6 0 -16 7 -23 15 -21 25 -200 71 -200 51 0 -7 -3 -7 -8 -1 -8 12 -52 15 -52
4 0 -5 -11 -5 -23 0 -13 5 -30 5 -37 1 -8 -5 -18 -6 -22 -4 -4 3 -8 0 -8 -6 0
-6 -8 -5 -22 4 -15 9 -30 11 -43 6z m1474 -3401 c-23 -14 -239 -232 -239 -242
0 -4 -3 -7 -7 -5 -5 2 -33 -23 -64 -54 -31 -32 -54 -58 -52 -58 2 0 -33 -32
-78 -71 -44 -39 -83 -78 -86 -85 -3 -8 -9 -11 -14 -8 -5 3 -9 1 -9 -4 0 -4
-57 -64 -126 -133 -161 -158 -162 -159 -174 -159 -5 0 -9 -4 -7 -9 1 -5 -13
-21 -32 -35 -19 -14 -31 -26 -25 -26 5 0 -4 -9 -21 -20 -16 -11 -27 -20 -23
-20 8 0 -11 -20 -90 -92 -28 -27 -50 -48 -48 -48 2 0 -57 -60 -131 -134 -74
-74 -136 -133 -136 -133 -1 1 -23 -21 -49 -48 -25 -28 -117 -120 -204 -205
-87 -85 -244 -239 -348 -342 -104 -104 -196 -188 -204 -188 -9 0 -13 -2 -11
-5 6 -6 -331 -345 -343 -345 -5 0 -8 -3 -6 -7 2 -5 -78 -90 -179 -189 -101
-100 -183 -180 -183 -177 0 2 -75 -70 -167 -161 -92 -91 -170 -166 -175 -166
-4 0 -8 8 -9 18 0 9 -3 26 -5 37 -3 11 -7 31 -9 45 -1 14 -4 25 -5 25 -1 0 -4
11 -5 25 -6 41 -13 85 -16 88 -1 1 -3 11 -4 22 -1 11 -4 22 -5 25 -1 3 -3 13
-4 23 -1 9 -5 23 -10 30 -4 7 -6 16 -3 18 3 3 1 20 -4 37 -5 18 -11 48 -14 67
-5 35 -10 62 -21 110 -3 14 -7 39 -9 55 -2 17 -4 30 -5 30 -2 0 -4 9 -5 20 -2
11 -6 34 -10 50 -6 28 -11 56 -20 115 -2 14 -4 25 -5 25 -3 0 -10 39 -13 65
-2 14 -6 31 -11 38 -4 7 -5 19 -2 27 3 8 1 17 -4 20 -5 3 -9 13 -8 23 0 19 -9
74 -18 112 -3 14 -7 34 -9 45 -5 30 -14 77 -20 105 -8 36 -15 71 -20 100 -2
14 -6 35 -9 48 -6 21 -9 33 -22 92 -5 24 -10 53 -19 110 -2 14 -4 25 -5 25 -3
0 -12 51 -13 73 -1 12 -4 22 -8 22 -4 0 -8 12 -9 28 -1 34 -7 87 -9 87 -3 0
-10 30 -16 70 -3 17 -7 44 -10 60 -3 17 -7 41 -9 55 -3 14 -6 25 -7 25 -1 0
-3 9 -4 20 -2 11 -5 34 -9 50 -7 39 -18 104 -22 130 -1 11 -3 20 -4 20 -2 0
-4 11 -5 25 -2 14 -6 39 -10 57 -3 17 -2 34 2 36 8 5 86 19 111 20 6 0 12 4
12 8 0 5 6 6 14 3 8 -3 16 -2 19 3 3 5 22 8 41 8 20 -1 36 1 36 5 0 3 14 7 32
8 18 2 35 6 38 10 3 4 16 8 30 9 49 3 105 15 118 25 8 7 12 7 12 -2 0 -9 4 -9
13 -2 6 5 28 11 47 13 19 2 40 5 45 8 6 3 18 6 28 7 9 1 19 3 22 4 14 7 126
25 138 22 4 -1 7 2 7 6 0 9 18 12 63 12 15 0 27 3 27 7 0 5 13 8 29 9 16 1 37
5 47 9 11 4 28 9 39 10 49 4 116 18 120 25 3 5 14 6 24 3 10 -3 22 0 25 5 3 6
15 8 26 5 12 -3 20 0 20 7 0 10 3 10 14 1 10 -9 16 -9 21 -1 4 6 13 9 21 6 8
-3 14 -1 14 5 0 6 5 7 10 4 6 -4 17 -1 25 5 12 10 15 10 15 -1 0 -9 3 -10 8
-4 4 6 12 11 17 12 6 0 28 4 49 7 22 4 45 11 53 17 9 8 13 8 13 0 0 -7 8 -8
28 0 15 6 43 12 62 14 19 1 42 5 50 8 40 14 112 27 121 22 5 -4 9 -2 9 3 0 5
10 8 23 8 12 -1 27 1 33 6 6 4 27 9 47 10 20 2 37 6 37 9 0 4 10 6 23 5 12 -1
31 4 41 11 14 9 23 9 33 1 9 -8 13 -7 13 1 0 7 4 10 9 6 5 -3 13 0 17 6 4 8 9
7 15 -2 5 -8 9 -9 9 -3 0 12 40 23 103 29 21 2 43 8 50 13 7 5 20 8 30 7 9 -2
17 0 17 5 0 4 9 6 20 3 11 -3 20 -1 20 3 0 5 15 8 32 8 18 -1 38 1 43 5 12 6
28 10 70 14 17 2 36 6 42 10 7 4 28 8 48 9 19 1 35 4 35 7 0 4 14 8 30 9 17 1
67 11 110 21 47 11 80 14 80 9 0 -6 6 -6 14 1 8 6 33 14 57 16 23 3 46 10 51
17 6 10 8 10 8 0 0 -8 5 -10 13 -5 6 4 21 8 32 8 11 0 26 4 33 8 6 5 17 5 22
2 6 -3 10 -2 10 3 0 5 6 9 13 9 16 1 120 20 177 33 25 6 59 13 75 16 51 10 60
12 60 14 0 1 19 3 43 6 24 2 51 8 60 13 9 5 25 7 35 6 9 -2 17 1 17 6 0 6 5 7
10 4 6 -3 15 -3 22 1 6 4 31 9 56 11 25 2 52 8 61 12 9 5 28 8 44 7 15 -1 27
2 27 7 0 4 5 5 11 1 8 -4 7 -9 -2 -15z"/>
</g>
</svg>
